<?xml version="1.0" standalone="no"?>
<!DOCTYPE svg PUBLIC "-//W3C//DTD SVG 20010904//EN"
 "http://www.w3.org/TR/2001/REC-SVG-20010904/DTD/svg10.dtd">
<svg version="1.0" xmlns="http://www.w3.org/2000/svg"
 width="498.000000pt" height="92.000000pt" viewBox="0 0 498.000000 92.000000"
 preserveAspectRatio="xMidYMid meet">

<g transform="translate(0.000000,92.000000) scale(0.100000,-0.100000)"
fill="#000000" stroke="none">
<path d="M0 460 l0 -460 2490 0 2490 0 0 460 0 460 -2490 0 -2490 0 0 -460z
m1650 185 c0 -30 3 -35 24 -35 21 0 25 6 28 32 2 22 9 34 21 36 15 3 17 -6 17
-87 0 -84 -1 -91 -20 -91 -17 0 -20 7 -20 40 0 36 -2 40 -25 40 -22 0 -25 -4
-25 -40 0 -33 -3 -40 -20 -40 -18 0 -20 7 -20 83 0 85 3 97 27 97 8 0 13 -12
13 -35z m370 -45 c0 -47 4 -80 10 -80 6 0 10 -4 10 -10 0 -5 -15 -10 -32 -10
l-33 0 0 90 c0 87 1 90 23 90 21 0 22 -4 22 -80z m160 6 c0 -41 5 -78 10 -81
20 -13 9 -25 -22 -25 l-33 0 0 90 c0 87 1 90 23 90 21 0 22 -4 22 -74z m960 0
c0 -41 3 -81 6 -90 5 -12 0 -16 -22 -16 l-29 0 0 90 c0 87 1 90 23 90 21 0 22
-4 22 -74z m171 47 c1 -16 2 -46 3 -68 1 -22 5 -50 9 -61 7 -21 4 -22 -46 -23
-48 0 -55 2 -66 25 -17 38 -14 49 25 83 26 23 34 37 29 51 -5 16 -2 20 19 20
21 0 26 -5 27 -27z m147 15 c25 -25 8 -118 -21 -118 -15 0 -37 46 -37 80 0 27
16 50 35 50 6 0 16 -5 23 -12z m-1913 -48 l39 -40 -39 -40 c-21 -22 -48 -40
-59 -40 -17 0 -15 6 17 38 l36 37 -29 34 c-56 63 -25 73 35 11z m353 -43 c3
-24 0 -26 -39 -29 -23 -2 -44 -9 -47 -15 -5 -16 40 -17 55 -2 17 17 37 1 22
-17 -14 -17 -90 -19 -107 -2 -16 16 -15 83 1 96 19 16 70 19 92 6 11 -6 21
-23 23 -37z m470 30 c17 -13 15 -75 -2 -93 -18 -17 -87 -19 -104 -2 -7 7 -12
31 -12 54 0 37 3 44 28 52 29 11 69 6 90 -11z m372 3 c21 14 94 12 108 -2 16
-16 15 -69 -2 -90 -17 -23 -83 -24 -107 -3 -14 14 -19 14 -30 2 -16 -16 -108
-19 -126 -4 -7 5 -13 31 -13 58 0 42 3 49 20 49 16 0 20 -7 21 -37 0 -21 3
-32 6 -25 2 6 13 12 23 12 10 0 21 -6 23 -12 3 -7 6 1 6 18 1 41 19 59 41 39
10 -9 20 -11 30 -5z m262 -7 c12 -15 10 -16 -15 -9 -23 5 -29 2 -39 -20 -9
-20 -9 -30 0 -45 17 -27 16 -29 -20 -29 l-33 0 0 59 0 59 47 0 c31 1 51 -5 60
-15z m453 -84 c0 -7 -8 -15 -17 -17 -18 -3 -25 18 -11 32 10 10 28 1 28 -15z
m-1910 -239 l40 -39 -40 -41 c-60 -61 -91 -52 -36 10 l29 33 -29 31 c-56 59
-24 64 36 6z m205 -145 c0 -12 -14 -15 -64 -15 -60 0 -84 8 -69 24 3 3 35 6
70 6 49 0 63 -3 63 -15z"/>
<path d="M3253 578 c-14 -16 -11 -50 4 -55 13 -5 22 27 13 51 -5 15 -8 16 -17
4z"/>
<path d="M1813 588 c2 -7 12 -13 22 -13 10 0 20 6 23 13 2 7 -6 12 -23 12 -17
0 -25 -5 -22 -12z"/>
<path d="M2290 561 c0 -37 2 -41 26 -41 23 0 25 3 22 38 -2 30 -7 38 -25 40
-21 3 -23 -1 -23 -37z"/>
<path d="M2770 560 c0 -33 4 -40 19 -40 10 0 21 9 24 20 8 31 -3 60 -24 60
-15 0 -19 -7 -19 -40z"/>
</g>
</svg>
